<?xml version="1.0" encoding="UTF-8"?>
<svg version="1.1" xmlns="http://www.w3.org/2000/svg" width="1456" height="1328">
<path d="M0 0 C480.48 0 960.96 0 1456 0 C1456 438.24 1456 876.48 1456 1328 C975.52 1328 495.04 1328 0 1328 C0 889.76 0 451.52 0 0 Z " fill="#FEFEFE" transform="translate(0,0)"/>
<path d="M0 0 C1.25587921 0.00149048 2.51175842 0.00298096 3.80569458 0.0045166 C24.1654854 0.04773683 44.23186009 0.76287544 64.4375 3.3125 C66.22824951 3.53728027 66.22824951 3.53728027 68.05517578 3.76660156 C75.87870795 4.78242063 83.66083057 5.987223 91.4375 7.3125 C92.5502832 7.50070313 93.66306641 7.68890625 94.80957031 7.8828125 C121.31160506 12.42731689 146.88200945 18.96134385 172.4375 27.3125 C173.44522461 27.63976074 174.45294922 27.96702148 175.49121094 28.30419922 C202.42212169 37.1241868 228.14567362 48.61820918 253.4375 61.3125 C254.35772949 61.77398437 255.27795898 62.23546875 256.22607422 62.7109375 C273.65923616 71.51927196 290.18031673 81.69630356 306.4375 92.5 C307.27873413 93.0576001 307.27873413 93.0576001 308.13696289 93.62646484 C327.84152079 106.71652079 327.84152079 106.71652079 333.4375 112.3125 C333.84375 114.65234375 333.84375 114.65234375 333.4375 117.3125 C331.59375 119.56640625 331.59375 119.56640625 328.9375 121.875 C328.44757568 122.30135742 327.95765137 122.72771484 327.45288086 123.16699219 C320.7321276 128.9137082 313.60149522 134.1378995 306.4375 139.3125 C305.27420166 140.15651367 305.27420166 140.15651367 304.08740234 141.01757812 C291.92339717 149.80610255 279.44659307 157.83518713 266.4375 165.3125 C265.68791016 165.7451416 264.93832031 166.1777832 264.16601562 166.62353516 C258.96955757 169.60817335 253.72188123 172.48681627 248.4375 175.3125 C247.64811035 175.73853516 246.8587207 176.16457031 246.04541016 176.60351562 C206.31669901 197.86566034 162.47232322 210.97554278 118.125 218.0625 C116.8875 218.26141846 115.65 218.46033691 114.375 218.6652832 C95.12583322 221.59565205 76.01992019 222.66362723 56.5625 222.5625 C55.51300171 222.55973053 54.46350342 222.55696106 53.38220215 222.55410767 C38.32243437 222.50753845 23.38956149 222.27859899 8.4375 220.3125 C7.633125 220.21066406 6.82875 220.10882813 6 220.00390625 C1.04385757 219.36056084 -3.88582427 218.60186743 -8.81396484 217.77197266 C-10.73733467 217.4504429 -12.66230326 217.1383985 -14.58837891 216.83349609 C-87.23131907 205.31706706 -156.62598576 176.5901755 -220.3828125 140.59375 C-221.1245874 140.17504639 -221.8663623 139.75634277 -222.63061523 139.32495117 C-223.99932842 138.55001449 -225.3661722 137.77176237 -226.73071289 136.98950195 C-229.3265077 135.51063677 -231.71864695 134.26045102 -234.5625 133.3125 C-231.70045915 139.53585665 -228.26597739 144.65736011 -224 150 C-223.38012207 150.78528076 -222.76024414 151.57056152 -222.12158203 152.37963867 C-207.46521291 170.85555783 -191.75707851 189.21099983 -173.5625 204.3125 C-173.04300781 204.75110352 -172.52351563 205.18970703 -171.98828125 205.64160156 C-113.54451077 254.89305715 -39.52238103 283.70420955 36.4375 290.3125 C37.49372559 290.4060376 38.54995117 290.4995752 39.63818359 290.59594727 C53.59012744 291.64742785 67.57902813 291.51346517 81.5625 291.5 C82.2339933 291.49943855 82.9054866 291.49887711 83.59732819 291.49829865 C113.06812053 291.51697755 113.06812053 291.51697755 142.4375 289.3125 C143.26493713 289.21777405 144.09237427 289.1230481 144.94488525 289.02545166 C191.77873271 283.60362138 237.62231628 275.19051303 282.4375 260.3125 C283.78350484 259.86711554 285.12953428 259.42180544 286.47558594 258.9765625 C291.86527003 257.19147769 297.25387695 255.40343911 302.6328125 253.58618164 C308.20604495 251.70574807 313.75787899 249.84549505 319.4375 248.3125 C320.0975 249.3025 320.7575 250.2925 321.4375 251.3125 C265.21395371 281.55643797 205.42608052 302.65953637 142.4375 313.3125 C141.40641113 313.49409668 140.37532227 313.67569336 139.31298828 313.86279297 C81.32166334 323.98768064 21.4149867 322.50535635 -36.5625 313.3125 C-37.68962402 313.13493164 -38.81674805 312.95736328 -39.97802734 312.77441406 C-82.06207035 306.0105842 -123.84552754 294.81269032 -163.5625 279.3125 C-164.16197449 279.07873657 -164.76144897 278.84497314 -165.37908936 278.60412598 C-199.92870366 265.10344732 -232.90988349 248.76920893 -266.02294922 232.09814453 C-266.91931091 231.64892639 -267.81567261 231.19970825 -268.73919678 230.73687744 C-270.77217045 229.71122713 -272.7990133 228.67339205 -274.82183838 227.62786865 C-275.89528503 227.07762024 -276.96873169 226.52737183 -278.07470703 225.96044922 C-279.05263214 225.45440155 -280.03055725 224.94835388 -281.03811646 224.42697144 C-283.559999 223.11056269 -283.559999 223.11056269 -286.5625 223.3125 C-282.51287047 228.9498903 -278.16093089 234.102283 -273.375 239.125 C-272.72007568 239.817146 -272.06515137 240.50929199 -271.39038086 241.22241211 C-260.53017269 252.66680643 -260.53017269 252.66680643 -248.90234375 263.31640625 C-246.98289165 264.95386872 -245.08407581 266.60923701 -243.19140625 268.27734375 C-235.21521245 275.28890198 -227.09930206 281.99253877 -218.5625 288.3125 C-217.89911621 288.80717773 -217.23573242 289.30185547 -216.55224609 289.81152344 C-144.02850404 343.73560526 -56.51598215 373.06208834 32.9375 381.9375 C34.17113281 382.06084717 35.40476562 382.18419434 36.67578125 382.3112793 C58.48628471 384.37385636 80.29794878 384.55102331 102.1875 384.5625 C102.95996441 384.56338371 103.73242882 384.56426743 104.52830124 384.56517792 C128.02809826 384.58899745 151.33151109 384.0931352 174.72851562 381.68847656 C178.93671838 381.26189466 183.14794836 380.90703645 187.36425781 380.57177734 C194.37235984 379.94211538 201.30984134 379.07870134 208.25390625 377.9453125 C209.93020533 377.67578422 211.60655803 377.40658925 213.28295898 377.13769531 C214.13606659 377.00045044 214.98917419 376.86320557 215.86813354 376.72180176 C219.17320669 376.19530144 222.48119556 375.68893048 225.78948975 375.18313599 C250.72767407 371.35956061 275.32537955 366.6159526 299.89752197 360.90222168 C302.47955231 360.30273647 305.06263131 359.7079642 307.64599609 359.11425781 C312.74566988 357.94098604 317.84216426 356.75445474 322.9375 355.5625 C323.70502594 355.38390442 324.47255188 355.20530884 325.26333618 355.02130127 C336.1100122 352.48849741 346.77562273 349.53166923 357.4375 346.3125 C359.51991563 345.70517777 361.60303485 345.10025011 363.6875 344.5 C364.49703125 344.26667969 365.3065625 344.03335937 366.140625 343.79296875 C368.62965852 343.27230357 370.90166199 343.22707283 373.4375 343.3125 C373.4375 344.3025 373.4375 345.2925 373.4375 346.3125 C336.92710861 360.74274342 299.19403739 371.98583598 261.10449219 381.40356445 C257.97983412 382.17807191 254.86043075 382.96972941 251.7421875 383.76953125 C205.6481043 395.39873364 157.82658513 402.11215041 110.4375 405.3125 C109.22578125 405.39910385 108.0140625 405.4857077 106.765625 405.57493591 C97.33826971 406.21686717 87.9554497 406.4754851 78.50390625 406.48046875 C77.01399203 406.48370322 75.52407808 406.48706867 74.03416443 406.49055481 C70.92568227 406.4964881 67.81722764 406.49840125 64.70874023 406.49780273 C61.59995601 406.49772231 58.49132178 406.50454041 55.38256836 406.51831055 C27.33559682 406.64041337 -0.55099644 405.65395353 -28.4375 402.4375 C-29.19956757 402.35190826 -29.96163513 402.26631653 -30.74679565 402.1781311 C-64.2279653 398.41611005 -97.16275952 392.38561765 -129.9375 384.625 C-130.72524811 384.43886139 -131.51299622 384.25272278 -132.32461548 384.0609436 C-142.14902898 381.72885915 -151.87778994 379.17794565 -161.5625 376.3125 C-162.85622688 375.93397308 -164.15001146 375.55564332 -165.44384766 375.17749023 C-211.97079402 361.52549359 -256.67379747 343.86898049 -300.5625 323.3125 C-301.53310364 322.85813568 -301.53310364 322.85813568 -302.52331543 322.39459229 C-318.30785338 314.99382503 -333.85005079 307.23952075 -349.06201172 298.71191406 C-351.55759178 297.31524692 -354.06061844 295.93294468 -356.56640625 294.5546875 C-363.74013959 290.60242126 -370.8750634 286.6334237 -377.8125 282.2734375 C-379.52193671 281.15206074 -379.52193671 281.15206074 -381.5625 281.3125 C-375.99557478 287.97019967 -369.93510078 294.09378007 -363.79272461 300.21264648 C-362.12823723 301.8717732 -360.46916553 303.53618051 -358.81054688 305.20117188 C-353.23327137 310.78230399 -347.58495958 316.20921016 -341.5625 321.3125 C-340.37056527 322.35729031 -339.18044955 323.40415956 -337.9921875 324.453125 C-329.72700968 331.69940292 -321.291676 338.63445365 -312.5625 345.3125 C-311.84529785 345.86631348 -311.1280957 346.42012695 -310.38916016 346.99072266 C-285.90987665 365.86437976 -259.93585228 382.37340357 -232.77929688 397.10791016 C-231.31713729 397.90243608 -229.85743196 398.70149757 -228.40039062 399.50537109 C-159.89814107 437.26190855 -81.77859424 457.82509034 -4.4375 466.4375 C-3.72558502 466.51826782 -3.01367004 466.59903564 -2.28018188 466.68225098 C23.40145669 469.5617963 49.07001112 470.67722761 74.90177917 470.57044983 C76.98403927 470.56231826 79.06628827 470.55740258 81.14855957 470.55310059 C103.62301793 470.49979982 126.02417462 470.06236449 148.4375 468.3125 C149.31176636 468.2446228 150.18603271 468.17674561 151.08679199 468.10681152 C173.85400148 466.32041953 196.56177228 464.18826386 219.13421631 460.67053223 C221.76944645 460.26090083 224.40546457 459.85653927 227.04150391 459.45214844 C250.68776542 455.81438905 274.30531541 452.12804197 297.70458984 447.11181641 C300.36513641 446.54212187 303.02641511 445.97870514 305.68994141 445.42333984 C337.6267288 438.76331774 369.26966839 431.21068882 400.48461914 421.68798828 C404.60878 420.45993141 408.12036217 419.97390095 412.4375 420.3125 C414.4375 422.3125 414.4375 422.3125 414.4375 425.3125 C382.81969867 441.28261186 349.96080135 453.96071733 316.4375 465.3125 C315.35742676 465.6842334 314.27735352 466.0559668 313.16455078 466.43896484 C253.40865947 486.94070462 189.28326875 497.54334293 126.4375 502.3125 C125.66069885 502.37201843 124.88389771 502.43153687 124.08355713 502.49285889 C65.15765148 506.93672677 5.55245947 505.02590285 -53.05957031 497.73828125 C-57.70029341 497.17420116 -62.34789462 496.70798954 -67 496.25 C-112.51636149 491.52272188 -158.11371705 482.02042742 -202.5625 471.3125 C-203.2225 471.15507324 -203.8825 470.99764648 -204.5625 470.83544922 C-209.24334936 469.71360251 -213.90491069 468.52630208 -218.5625 467.3125 C-219.40474121 467.09432617 -220.24698242 466.87615234 -221.11474609 466.65136719 C-267.37454562 454.60768501 -313.30927442 440.59664769 -358.05859375 423.765625 C-359.28449219 423.30671875 -360.51039063 422.8478125 -361.7734375 422.375 C-362.82837402 421.97410156 -363.88331055 421.57320312 -364.97021484 421.16015625 C-367.58317889 420.15710102 -367.58317889 420.15710102 -370.5625 420.3125 C-369.95595616 423.94502364 -369.57973302 424.29837242 -366.484375 426.8359375 C-365.10208679 427.7985418 -363.71068878 428.7481407 -362.3125 429.6875 C-361.17989746 430.46589233 -361.17989746 430.46589233 -360.02441406 431.26000977 C-357.5454496 432.95679384 -355.05473959 434.63528754 -352.5625 436.3125 C-350.87498126 437.45960784 -349.18748137 438.60674343 -347.5 439.75390625 C-320.8854325 457.75015894 -293.2360655 473.82660418 -264.5625 488.3125 C-262.8623877 489.17464111 -262.8623877 489.17464111 -261.12792969 490.05419922 C-217.33007558 512.18190957 -170.69401531 529.8240917 -123.078125 541.68505859 C-120.83080804 542.24557923 -118.58674346 542.81700373 -116.34375 543.39453125 C-112.42306842 544.39462381 -108.49517033 545.36103257 -104.5625 546.3125 C-103.83530762 546.49103516 -103.10811523 546.66957031 -102.35888672 546.85351562 C-64.42032451 556.10178503 -25.46599777 562.18522819 13.4375 565.3125 C14.09508301 565.36577454 14.75266602 565.41904907 15.43017578 565.47393799 C91.36536211 571.5142369 167.94909856 566.1232368 243.22363281 555.61920166 C245.35678216 555.32368238 247.49065821 555.03432612 249.625 554.74755859 C286.28494145 549.8136689 322.63049868 542.79860156 358.60595703 534.21923828 C362.356427 533.331686 366.11193073 532.47100456 369.87109375 531.62109375 C380.83505408 529.14120479 391.65965501 526.50765061 402.4375 523.3125 C406.24458561 522.20941217 410.05833389 521.1319161 413.875 520.0625 C414.81182617 519.79179688 415.74865234 519.52109375 416.71386719 519.2421875 C421.79490816 517.82642887 426.16227712 516.99322929 431.4375 517.3125 C431.7675 518.9625 432.0975 520.6125 432.4375 522.3125 C426.4932953 526.44871942 420.46667205 530.02552168 413.98828125 533.25390625 C412.66446442 533.92107162 412.66446442 533.92107162 411.31390381 534.60171509 C408.4631582 536.034077 405.60730444 537.45577108 402.75 538.875 C401.2791243 539.60790756 401.2791243 539.60790756 399.77853394 540.35562134 C367.97463723 556.17840236 335.38178641 569.43368734 301.6875 580.6875 C300.94771912 580.93484894 300.20793823 581.18219788 299.44573975 581.43704224 C285.90270999 585.94981167 272.25755636 590.16208473 258.4375 593.75 C257.66301514 593.95117432 256.88853027 594.15234863 256.09057617 594.35961914 C253.54104904 595.01660015 250.98954739 595.66538215 248.4375 596.3125 C247.52564941 596.54582031 246.61379883 596.77914062 245.67431641 597.01953125 C213.33209628 605.24110496 180.74329918 610.00317714 147.6645813 614.03547668 C145.67216331 614.28331058 143.68229433 614.5514405 141.69287109 614.82226562 C117.28520448 617.84779851 92.4882351 617.66110447 67.94042969 617.62817383 C64.19909619 617.62355019 60.45808847 617.63046014 56.71679688 617.64868164 C31.13417206 617.77190076 5.90105926 616.7927676 -19.5625 614.3125 C-21.25835236 614.15193619 -21.25835236 614.15193619 -22.98846436 613.98812866 C-29.22987082 613.39292357 -35.46014096 612.72692701 -41.6875 612 C-42.58931 611.89611969 -43.49112 611.79223938 -44.42025757 611.68521118 C-62.91966782 609.53897714 -81.25866638 606.73948844 -99.5625 603.3125 C-100.3143457 603.17261658 -101.06619141 603.03273315 -101.84082031 602.88861084 C-122.40473119 599.04922233 -142.73127783 594.42326777 -163 589.25 C-163.95580963 589.00650818 -164.91161926 588.76301636 -165.89639282 588.512146 C-188.58760366 582.70531597 -210.98940431 576.02835034 -233.25 568.75 C-234.30088806 568.40689789 -235.35177612 568.06379578 -236.43450928 567.71029663 C-263.7660976 558.76114077 -290.5805704 548.70424465 -316.98681641 537.30981445 C-318.17710449 536.79894287 -319.36739258 536.28807129 -320.59375 535.76171875 C-322.14932617 535.08629028 -322.14932617 535.08629028 -323.73632812 534.3972168 C-326.35720649 533.39129398 -328.79799181 532.76341439 -331.5625 532.3125 C-330.9860996 535.63467049 -330.04014203 537.17975261 -327.5703125 539.44921875 C-326.95357666 540.02164307 -326.33684082 540.59406738 -325.70141602 541.18383789 C-324.70452759 542.08283813 -324.70452759 542.08283813 -323.6875 543 C-323.00421631 543.62575928 -322.32093262 544.25151855 -321.61694336 544.89624023 C-316.09678279 549.91533311 -310.39460357 554.66088924 -304.5625 559.3125 C-303.36030138 560.30395868 -302.15989933 561.29759829 -300.9609375 562.29296875 C-233.14039221 618.43264684 -151.22802205 656.83064846 22.4375 691.3125 C23.93606871 691.44738169 25.43460191 691.58265821 26.93310547 691.71826172 C96.54381214 697.93609743 168.61155322 694.94784527 237.33154297 682.07421875 C241.50767863 681.29325561 245.69230984 680.56615412 249.87890625 679.84375 C332.25501887 665.53436852 414.2639376 639.41283821 490.16015625 604.296875 C490.90899582 603.95160263 491.65783539 603.60633026 492.42936707 603.25059509 C496.1274663 601.5447967 499.81919203 599.82744147 503.50073242 598.08618164 C504.84925853 597.45939335 506.19796423 596.83299128 507.546875 596.20703125 C508.73249023 595.64862549 509.91810547 595.09021973 511.13964844 594.51489258 C515.74032098 592.83749309 518.89339741 592.62258182 523.375 594.625 C526.21243475 598.32226346 525.54254864 600.41749739 525.0324707 604.91625977 C523.82343059 611.81776041 521.66360365 618.4538001 519.5625 625.125 C519.19618973 626.30326859 519.19618973 626.30326859 518.82247925 627.50534058 C510.95488753 652.79172612 501.65204671 677.30222514 490.4375 701.3125 C489.89802734 702.46975586 489.35855469 703.62701172 488.80273438 704.81933594 C475.62317315 732.9517366 460.59387282 760.05437249 442.4375 785.3125 C441.90688965 786.05419434 441.3762793 786.79588867 440.82958984 787.56005859 C432.47603834 799.19527642 423.67808761 810.37175188 414.4375 821.3125 C413.89818848 821.95622559 413.35887695 822.59995117 412.80322266 823.26318359 C407.25943015 829.87876468 401.64930563 836.27195939 395.45703125 842.296875 C393.47650812 844.27356733 391.63742514 846.31718787 389.8125 848.4375 C384.8880978 854.15433474 379.56560899 859.26599401 373.84765625 864.1796875 C371.96679237 865.84411486 370.13144923 867.53147076 368.30859375 869.2578125 C360.84987624 876.31737291 353.17467953 882.82521337 345.02783203 889.07324219 C342.69962644 890.88748406 340.44772006 892.78960529 338.1875 894.6875 C259.45063591 959.33947051 157.307312 993.91643969 -43.84033203 1004.68066406 C-56.11370052 1003.46669058 -68.34331768 1001.98271374 -80.5625 1000.3125 C-82.19614502 1000.09255371 -82.19614502 1000.09255371 -83.86279297 999.86816406 C-109.27792983 996.36848072 -135.05540836 990.9477096 -159.5625 983.3125 C-160.65739746 982.97524902 -161.75229492 982.63799805 -162.88037109 982.29052734 C-212.01195796 967.07255123 -258.78632581 946.32902521 -302.5625 919.3125 C-303.45775391 918.76609863 -304.35300781 918.21969727 -305.27539062 917.65673828 C-332.70657944 900.90314496 -357.8309398 880.93458818 -381.5625 859.3125 C-382.43648437 858.53132813 -383.31046875 857.75015625 -384.2109375 856.9453125 C-390.60850462 851.1787383 -396.7744247 845.2050493 -402.875 839.125 C-403.6278125 838.37677979 -404.380625 837.62855957 -405.15625 836.85766602 C-409.83044287 832.17054673 -414.25258975 827.33444348 -418.5625 822.3125 C-419.61960938 821.10937124 -420.67817519 819.9075204 -421.73828125 818.70703125 C-428.67594742 810.80398229 -435.30879644 802.77312484 -441.5625 794.3125 C-442.06249512 793.63848145 -442.56249023 792.96446289 -443.07763672 792.27001953 C-451.00293479 781.54954185 -458.50581494 770.62321505 -465.5625 759.3125 C-466.26342773 758.19681641 -466.26342773 758.19681641 -466.97851562 757.05859375 C-476.02687764 742.58611215 -483.89788725 727.55479698 -491.5625 712.3125 C-491.95920898 711.53374512 -492.35591797 710.75499023 -492.76464844 709.95263672 C-504.92462465 685.98092773 -513.43921411 660.16259939 -520.5625 634.3125 C-520.86099854 633.24216522 -520.86099854 633.24216522 -521.16552734 632.15020752 C-524.46823105 620.25684551 -527.10435823 608.35249948 -529.1875 596.1875 C-529.33591339 595.32312317 -529.48432678 594.45874634 -529.63723755 593.56817627 C-537.40576555 547.87444833 -538.71879862 500.31943413 -532.5625 454.3125 C-532.46304077 453.56711975 -532.36358154 452.8217395 -532.2611084 452.05377197 C-525.20020497 399.79900517 -511.7247241 349.26150128 -489.5625 301.3125 C-489.11793457 300.33974121 -488.67336914 299.36698242 -488.21533203 298.36474609 C-472.34819297 263.74922276 -452.05550977 230.67494293 -428.01806641 201.10351562 C-426.9930714 199.8423007 -425.97229267 198.57765334 -424.95458984 197.31054688 C-417.54859534 188.09097022 -409.88052189 179.23816993 -401.71875 170.6796875 C-399.52374685 168.37230181 -397.42921968 166.00770353 -395.375 163.57421875 C-393.40163341 161.24781869 -391.44075412 159.17391784 -389.0625 157.25 C-385.05965035 153.85944093 -381.42169676 150.17643127 -377.75 146.4375 C-372.74531867 141.36341117 -367.64599123 136.72579409 -362.05078125 132.3046875 C-359.75650896 130.467829 -357.59779765 128.55344354 -355.4375 126.5625 C-328.67077055 102.55326665 -297.05291546 83.40800485 -265.5625 66.3125 C-264.71751953 65.84972656 -263.87253906 65.38695312 -263.00195312 64.91015625 C-238.16803647 51.36438353 -212.21259114 40.71865859 -185.5625 31.3125 C-184.13188232 30.79743896 -184.13188232 30.79743896 -182.67236328 30.27197266 C-144.22196778 16.47391953 -103.5000955 7.29781634 -62.81616211 3.59033203 C-60.62012119 3.37312822 -60.62012119 3.37312822 -58.76611328 2.82789612 C-40.17558944 -1.52018251 -18.99100661 -0.0563583 0 0 Z " fill="#084C98" transform="translate(731.5625,191.6875)"/>
</svg>
