<?xml version="1.0" standalone="no"?>
<!DOCTYPE svg PUBLIC "-//W3C//DTD SVG 20010904//EN"
 "http://www.w3.org/TR/2001/REC-SVG-20010904/DTD/svg10.dtd">
<svg version="1.0" xmlns="http://www.w3.org/2000/svg"
 width="48.000000pt" height="48.000000pt" viewBox="0 0 48.000000 48.000000"
 preserveAspectRatio="xMidYMid meet">

<g transform="translate(0.000000,48.000000) scale(0.100000,-0.100000)"
fill="#000000" stroke="none">
<path d="M342 378 c-7 -7 -12 -27 -12 -44 0 -28 -4 -33 -27 -36 -22 -2 -29 -9
-31 -30 -3 -25 0 -28 27 -28 20 0 31 -5 31 -14 0 -30 -13 -46 -36 -46 -23 0
-24 -3 -24 -65 0 -71 7 -78 58 -51 109 57 140 195 66 294 -27 35 -34 38 -52
20z"/>
<path d="M118 153 c-30 -31 -31 -33 -14 -52 18 -20 76 -51 95 -51 7 0 11 24
11 64 0 63 0 64 -30 68 -23 4 -36 -2 -62 -29z"/>
</g>
</svg>
