<?xml version="1.0" standalone="no"?>
<!DOCTYPE svg PUBLIC "-//W3C//DTD SVG 20010904//EN"
 "http://www.w3.org/TR/2001/REC-SVG-20010904/DTD/svg10.dtd">
<svg version="1.0" xmlns="http://www.w3.org/2000/svg"
 width="1456.000000pt" height="1328.000000pt" viewBox="0 0 1456.000000 1328.000000"
 preserveAspectRatio="xMidYMid meet">

<g transform="translate(0.000000,1328.000000) scale(0.100000,-0.100000)"
fill="#000000" stroke="none">
<path d="M7040 11353 c-36 -2 -139 -10 -230 -18 -702 -65 -1355 -250 -1995
-565 -412 -204 -728 -408 -1080 -701 -142 -118 -483 -461 -605 -609 -667 -806
-1036 -1705 -1146 -2790 -21 -205 -24 -688 -5 -875 71 -723 275 -1341 640
-1948 366 -607 886 -1148 1496 -1557 625 -418 1332 -715 2060 -864 759 -155
1550 -162 2264 -20 1422 281 2621 1076 3385 2242 139 211 210 338 332 587 127
258 217 475 294 705 52 154 120 399 120 430 0 19 -48 60 -70 60 -12 0 -110
-40 -218 -89 -1854 -841 -3766 -1123 -5407 -800 -533 105 -1034 275 -1505 510
-421 211 -736 415 -1100 715 -166 136 -280 242 -280 260 0 29 29 23 169 -35
869 -366 1831 -628 2698 -735 421 -52 566 -60 1078 -61 475 0 596 5 920 41
743 81 1485 286 2195 606 219 98 570 280 581 300 12 23 1 48 -23 48 -11 0
-112 -25 -226 -56 -913 -247 -1834 -395 -2767 -445 -283 -15 -928 -7 -1165 15
-1333 122 -2483 512 -3514 1192 -313 207 -367 253 -321 270 8 3 101 -26 207
-64 1118 -404 2269 -661 3336 -747 424 -34 1036 -36 1437 -5 998 78 1908 313
2768 717 96 45 109 57 85 81 -19 19 -40 15 -232 -39 -649 -183 -1371 -325
-2021 -398 -428 -49 -550 -55 -1055 -55 -507 0 -628 6 -1010 54 -1186 150
-2258 612 -3130 1349 -155 130 -514 483 -509 499 2 7 77 -30 189 -93 779 -444
1645 -785 2460 -969 1227 -277 2531 -257 3790 59 469 117 1120 327 1120 361 0
20 -3 19 -183 -30 -481 -132 -934 -230 -1337 -290 -1403 -208 -2663 -60 -3665
429 -468 229 -840 496 -1215 874 -176 178 -222 233 -207 248 4 4 188 -84 410
-195 221 -111 472 -231 557 -266 1718 -717 3351 -695 4923 66 169 82 199 102
181 120 -3 3 -69 -17 -147 -44 -1040 -365 -2170 -484 -3057 -322 -931 170
-1712 648 -2256 1380 -79 106 -98 144 -73 144 6 0 84 -40 173 -89 759 -418
1469 -668 2166 -761 1147 -153 2284 171 3215 917 142 114 144 121 43 196
-1001 740 -2272 1121 -3538 1060z"/>
</g>
</svg>
