<?xml version="1.0" standalone="no"?>
<!DOCTYPE svg PUBLIC "-//W3C//DTD SVG 20010904//EN"
 "http://www.w3.org/TR/2001/REC-SVG-20010904/DTD/svg10.dtd">
<svg version="1.0" xmlns="http://www.w3.org/2000/svg"
 width="213.000000pt" height="95.000000pt" viewBox="0 0 213.000000 95.000000"
 preserveAspectRatio="xMidYMid meet">

<g transform="translate(0.000000,95.000000) scale(0.100000,-0.100000)"
fill="#000000" stroke="none">
<path d="M1475 733 c-119 -30 -142 -203 -34 -259 45 -23 124 -21 157 3 30 23
68 71 61 78 -3 2 -21 0 -40 -5 -51 -15 -117 -12 -155 6 -39 19 -46 38 -8 24
14 -6 33 -10 42 -9 9 0 2 5 -17 11 -19 5 -44 16 -55 25 -20 15 -20 15 8 9 l28
-7 -28 26 c-28 26 -25 27 21 9 16 -6 16 -3 -5 15 -24 22 -21 22 25 6 17 -7 17
-5 -2 9 -32 24 -29 38 5 20 33 -17 68 -17 107 0 l30 14 -37 16 c-37 16 -65 18
-103 9z"/>
<path d="M1132 718 c-18 -6 -46 -26 -62 -45 -52 -59 -37 -154 31 -189 43 -22
142 -19 170 6 l24 21 -32 -16 c-33 -16 -79 -20 -108 -9 -25 10 -45 58 -45 109
0 79 30 114 97 115 34 0 46 -5 67 -31 l26 -31 0 34 c0 29 -3 33 -27 34 -16 1
-46 4 -68 7 -22 3 -55 1 -73 -5z"/>
<path d="M200 607 c0 -77 -4 -117 -12 -126 -11 -10 5 -12 83 -9 113 4 142 19
137 72 -2 24 -11 35 -38 48 -19 9 -28 17 -19 18 22 0 49 32 49 58 0 36 -37 52
-122 52 l-78 0 0 -113z m122 86 c10 -9 18 -23 18 -31 0 -24 -31 -52 -57 -52
-21 0 -23 4 -23 50 0 45 2 50 22 50 12 0 30 -7 40 -17z m-4 -109 c32 -22 31
-80 -2 -96 -42 -19 -56 -5 -56 57 0 61 14 70 58 39z"/>
<path d="M481 613 c4 -60 2 -116 -3 -125 -8 -17 0 -18 102 -18 l110 0 0 31 0
31 -19 -23 c-14 -18 -29 -23 -67 -23 l-49 -1 -3 53 c-3 47 -1 52 18 52 14 0
26 -11 35 -32 14 -32 14 -32 14 37 0 39 -3 63 -6 55 -9 -24 -35 -50 -50 -50
-9 0 -13 16 -13 55 l0 55 36 0 c44 0 72 -15 84 -43 7 -19 9 -16 9 16 l1 37
-102 0 -103 0 6 -107z"/>
<path d="M827 614 c-31 -61 -63 -119 -72 -128 -15 -15 -14 -16 16 -16 26 0 29
2 20 14 -9 11 -10 20 -1 35 9 17 20 21 64 21 47 0 54 -3 65 -26 6 -14 9 -30 6
-35 -4 -5 17 -9 47 -9 29 0 48 4 41 8 -7 4 -39 61 -71 127 l-59 120 -56 -111z
m57 -26 l15 -38 -45 0 c-24 0 -44 2 -44 5 0 3 9 24 21 47 22 44 29 42 53 -14z"/>
<path d="M1718 708 c17 -17 17 -224 0 -231 -7 -3 2 -6 20 -6 30 -1 32 0 18 15
-12 12 -16 36 -16 100 0 46 3 84 8 84 4 0 48 -46 97 -101 l90 -102 3 113 c1
63 8 120 14 127 8 10 6 13 -8 13 -17 0 -19 -7 -16 -77 l3 -78 -65 70 c-36 39
-65 73 -66 78 0 4 -21 7 -47 7 -37 0 -44 -3 -35 -12z"/>
<path d="M1578 573 c7 -3 16 -2 19 1 4 3 -2 6 -13 5 -11 0 -14 -3 -6 -6z"/>
<path d="M160 295 l0 -115 905 0 905 0 0 115 0 115 -905 0 -905 0 0 -115z
m169 28 l51 -57 0 47 c0 26 -4 47 -10 47 -5 0 -10 5 -10 10 0 6 17 10 38 10
33 -1 35 -2 20 -14 -15 -11 -18 -29 -18 -95 0 -44 -4 -81 -9 -81 -5 0 -34 30
-65 66 l-56 66 0 -51 c0 -27 5 -53 10 -56 21 -13 9 -25 -25 -25 -34 0 -46 12
-25 25 6 3 10 37 10 76 0 39 -4 69 -10 69 -5 0 -10 5 -10 10 0 6 13 10 29 10
23 0 40 -12 80 -57z m301 32 c0 -28 -12 -32 -30 -10 -7 8 -21 15 -31 15 -14 0
-19 -7 -19 -30 0 -34 7 -38 26 -12 12 15 13 12 13 -28 0 -40 -1 -43 -13 -27
-19 25 -26 21 -26 -13 0 -27 3 -30 30 -30 23 0 33 6 39 23 8 19 10 20 16 5 4
-9 5 -25 3 -35 -3 -15 -15 -18 -86 -21 -75 -3 -105 7 -67 22 23 9 21 134 -2
152 -16 11 -6 13 65 14 81 0 82 0 82 -25z m219 -7 c0 -33 0 -33 -16 -10 -30
43 -43 28 -43 -53 0 -43 4 -75 10 -75 6 0 10 -4 10 -10 0 -5 -22 -10 -50 -10
-48 0 -66 12 -35 24 11 4 15 22 15 76 0 38 -4 70 -9 70 -21 0 -41 -13 -41 -26
0 -8 -4 -14 -10 -14 -5 0 -10 14 -10 30 l0 30 90 0 90 0 -1 -32z m131 23 c0
-5 -4 -11 -10 -13 -6 -2 -4 -20 4 -48 l13 -45 18 58 c10 31 24 57 30 57 6 0
20 -26 30 -57 l18 -58 15 45 c11 32 12 45 4 48 -23 7 -11 22 18 22 33 0 35 -2
20 -28 -6 -9 -21 -48 -34 -87 -13 -38 -29 -71 -34 -73 -6 -2 -19 23 -30 55
l-19 58 -18 -57 c-10 -32 -24 -58 -30 -58 -6 0 -23 38 -39 85 -15 47 -31 85
-37 85 -5 0 -9 5 -9 10 0 6 20 10 45 10 25 0 45 -4 45 -9z m393 -11 c50 -40
44 -120 -12 -153 -103 -61 -214 61 -132 144 37 36 104 41 144 9z m237 0 c21
-21 18 -46 -7 -67 -13 -10 -11 -17 12 -47 15 -20 32 -36 37 -36 5 0 6 -4 3
-10 -15 -24 -55 -10 -83 30 -15 21 -30 39 -34 40 -15 0 -8 -51 7 -56 8 -4 12
-10 9 -15 -7 -12 -94 -11 -94 1 0 6 5 10 10 10 6 0 10 32 10 75 0 43 -4 75
-10 75 -5 0 -10 5 -10 10 0 6 28 10 65 10 51 0 69 -4 85 -20z m178 6 c-11 -8
-18 -26 -18 -45 l0 -33 25 30 c15 18 23 37 19 46 -5 13 2 16 37 16 l44 0 -38
-31 c-20 -17 -37 -34 -37 -39 0 -4 20 -30 45 -58 25 -27 45 -53 45 -56 0 -3
-22 -6 -50 -6 -45 0 -67 13 -39 22 12 4 -27 58 -42 58 -15 0 -10 -50 6 -56 27
-11 5 -24 -40 -24 -45 0 -67 13 -40 24 23 9 21 134 -2 152 -16 12 -10 13 42
13 52 0 58 -1 43 -13z"/>
<path d="M1266 344 c-10 -27 -6 -110 6 -122 15 -15 51 -15 66 0 7 7 12 35 12
63 0 28 -5 56 -12 63 -17 17 -65 15 -72 -4z"/>
<path d="M1530 327 c0 -31 3 -34 21 -30 26 7 23 56 -3 61 -14 3 -18 -4 -18
-31z"/>
</g>
</svg>
