<?xml version="1.0" standalone="no"?>
<!DOCTYPE svg PUBLIC "-//W3C//DTD SVG 20010904//EN"
 "http://www.w3.org/TR/2001/REC-SVG-20010904/DTD/svg10.dtd">
<svg version="1.0" xmlns="http://www.w3.org/2000/svg"
 width="40.000000pt" height="40.000000pt" viewBox="0 0 40.000000 40.000000"
 preserveAspectRatio="xMidYMid meet">

<g transform="translate(0.000000,40.000000) scale(0.100000,-0.100000)"
fill="#000000" stroke="none">
<path d="M46 372 c-3 -5 20 -45 50 -90 l54 -82 -54 -82 c-30 -45 -53 -85 -50
-90 3 -4 18 -8 34 -8 25 0 36 10 70 60 22 33 45 60 50 60 5 0 28 -27 50 -60
34 -50 45 -60 70 -60 16 0 31 4 34 8 3 5 -20 45 -50 90 l-54 82 54 82 c30 45
53 85 50 90 -3 4 -18 8 -34 8 -25 0 -36 -10 -70 -60 -22 -33 -45 -60 -50 -60
-5 0 -28 27 -50 60 -34 50 -45 60 -70 60 -16 0 -31 -4 -34 -8z"/>
</g>
</svg>
